<svg xmlns="http://www.w3.org/2000/svg" width="957.2" height="252" data-name="Layer 2"><g data-name="Layer 1"><g style="font-weight:700;font-size:152.003px;font-family:&quot;Neue Haas Grotesk Display Pro&quot;;-inkscape-font-specification:&quot;Neue Haas Grotesk Display Pro Bold&quot;;fill:#000;stroke-width:51.3012;stop-color:#000"><path d="M288 86h15.8q13 0 20-7.9 6.8-8 6.8-23 0-15.1-7-23.8-7-8.8-19.5-8.8h-16zm-26.9 22.7V0h46.4q22.6 0 36.4 15 13.9 15.1 13.9 40 0 29.4-18.9 43.8-13.2 9.9-33.1 9.9zm127.8 2q-12 0-19.3-6.3-7.3-6.2-7.3-17.5 0-11.8 8-17.1 7.8-5.5 21.8-7.3 11.4-1.4 15.5-3 4.3-1.9 4.3-5.7 0-8.4-10.6-8.4-11.4 0-12.7 10h-22.8q.5-11.5 9.5-19 9-7.7 25.8-7.7 16.7 0 25.2 6.4 10 7.2 10 22.2v39.2q0 9.3 2.6 11.1v1h-24q-1.5-2-2.6-8.6h-.3q-7.4 10.7-23 10.7m7.8-15.9q7 0 11.3-3.8 4.4-3.9 4.4-10.1v-9.3q-3.6 1.8-12.8 4.1-7.4 1.7-10.5 4-3 2.2-3 6.5 0 8.6 10.6 8.6m51.4 13.9V30.9h23.9v10.6h.4q9-13 24-13 12.7 0 19.8 8.3 7.3 8 7.3 21.3v50.6h-24.8V63q0-6.4-3.2-10-3-3.9-9-3.9t-9.8 4.6q-3.8 4.6-3.8 11.9v43zm109.6 2q-12 0-19.3-6.3-7.3-6.2-7.3-17.5 0-11.8 8-17.1 7.8-5.5 21.8-7.3 11.4-1.4 15.5-3 4.3-1.9 4.3-5.7 0-8.4-10.7-8.4-11.4 0-12.6 10h-22.8q.5-11.5 9.4-19 9.2-7.7 25.9-7.7t25.2 6.4q9.9 7.2 9.9 22.2v39.2q0 9.3 2.7 11.1v1h-24q-1.5-2-2.6-8.6h-.3q-7.4 10.7-23 10.7m7.8-15.9q7 0 11.3-3.8 4.4-3.9 4.4-10.1v-9.3q-3.7 1.8-12.8 4.1-7.4 1.7-10.5 4-3 2.2-3 6.5 0 8.6 10.6 8.6m51.4 13.9V30.9H641v10.6h.4q9-13 24-13 12.6 0 19.8 8.3 7.3 8 7.3 21.3v50.6h-24.8V63q0-6.4-3.2-10-3-3.9-9-3.9t-9.8 4.6q-3.8 4.6-3.8 11.9v43zm116 .9q-11.9 0-18.4-4.7-6.4-4.9-6.4-16.7V46.4H698V30.9h10.3V6.2h24.2V31h14.1v15.5h-14.1v36.4q0 4.3 2 6 2.4 1.6 6.6 1.6h3.2l2.3-.1v18q-4.3 1.3-13.5 1.3m47 1q-12 0-19.4-6.2-7.3-6.2-7.3-17.5 0-11.8 8-17.1 7.9-5.5 21.8-7.3 11.4-1.4 15.5-3 4.3-1.9 4.3-5.7 0-8.4-10.6-8.4-11.4 0-12.7 10H757q.5-11.5 9.5-19 9-7.7 25.8-7.7 16.7 0 25.2 6.4 10 7.2 10 22.2v39.2q0 9.3 2.7 11.1v1h-24q-1.6-2-2.6-8.6h-.4q-7.4 10.7-23 10.7m7.8-15.9q7 0 11.3-3.8 4.4-3.9 4.4-10.1v-9.3q-3.6 1.8-12.8 4.1-7.4 1.7-10.5 4-3 2.2-3 6.5 0 8.6 10.6 8.6m51.4 13.9V30.9H863V43h.5q7.9-13.4 21.3-13.4 3.5 0 4.8.6v21.3h-.6q-11.5-1.6-18.2 4.1-6.7 5.7-6.7 18.1v35zm79 2q-12 0-19.4-6.3-7.3-6.2-7.3-17.5 0-11.8 8-17.1 7.8-5.5 21.8-7.3 11.4-1.4 15.5-3 4.3-1.9 4.3-5.7 0-8.4-10.7-8.4-11.4 0-12.6 10h-22.8q.5-11.5 9.4-19 9.2-7.7 25.9-7.7t25.2 6.4q9.9 7.2 9.9 22.2v39.2q0 9.3 2.7 11.1v1h-24q-1.5-2-2.6-8.6h-.3q-7.4 10.7-23 10.7m7.8-15.9q7 0 11.3-3.8 4.4-3.9 4.4-10.1v-9.3q-3.7 1.8-12.8 4.1-7.4 1.7-10.5 4-3 2.2-3 6.5 0 8.6 10.6 8.6" aria-label="Danantara" style="fill:#000" transform="matrix(.99132 0 0 1.0247 -2.6 0)"/></g><g style="font-weight:700;font-size:152.899px;font-family:&quot;Neue Haas Grotesk Display Pro&quot;;-inkscape-font-specification:&quot;Neue Haas Grotesk Display Pro Bold&quot;;fill:#000;stroke-width:51.6033;stop-color:#000"><path d="M262.8 242V132.5h27v109.3zm40.5 0v-78.4h24v10.7h.5q9-13 24.1-13 12.7 0 20 8.3 7.3 8.1 7.3 21.4v51h-25v-46q0-6.4-3.2-10-3-3.9-9-3.9-6.1 0-10 4.6-3.8 4.6-3.8 12v43.2zm117.9 2.4q-15.3 0-24.8-11.2-9.4-11.2-9.4-30.4 0-18.4 9.4-29.8 9.7-11.7 24.8-11.7 14 0 21.9 11.2h.4v-39.9h25v109.3h-24v-10.5h-.2q-7.7 13-23.1 13m6.4-19.8q7.7 0 12.1-6 4.4-6 4.4-15.8 0-10.3-4-16.4-4.2-6.2-12.2-6.2-7.3 0-11.6 6-4.1 6.2-4.1 16.3 0 10.2 4.1 16.2t11.3 6m78.8-4.5q4.2 6.4 12.2 6.4 8 0 12.2-6.4 4.5-6.4 4.5-17.3 0-10.8-4.5-17.2-4.3-6.6-12.2-6.6-8 0-12.2 6.4-4.3 6.4-4.3 17.4 0 10.9 4.3 17.3m42.5 12.4q-11.5 11.8-30.1 11.8-18.7 0-30.3-11.8-11.6-11.8-11.6-29.7t11.6-29.6q11.6-11.8 30.3-11.8 18.6 0 30 11.8 11.7 11.7 11.7 29.6 0 18-11.6 29.7m20 9.3v-78.3h24v10.7h.5q9-13 24.1-13 12.7 0 19.9 8.3 7.3 8.1 7.3 21.4v51h-24.9v-46q0-6.4-3.2-10-3-3.9-9-3.9-6.1 0-10 4.6-3.8 4.6-3.8 12v43.2zm125.4 2.3q-19 0-30.4-11.6-11.4-11.8-11.4-30 0-17.7 11.2-29.5 11.3-11.8 29-11.8 16.1 0 26.8 9.8 14 12.9 13.8 38.1H677q1.2 8.1 5.7 12.7 4.4 4.4 11.9 4.4 9.6 0 13-7.8h24.3q-2.8 11.3-13.2 18.5-10.2 7.2-24.4 7.2m-17.1-49.8H708q-.6-7-4.7-11.2-4-4.1-10-4.1-13.4 0-16.1 15.3m97.8 50q-17.1 0-27.4-7.4-10-7.5-10.7-20.5h23.6q1.4 11.7 14.4 11.7 5.6 0 8.8-2 3.4-2.2 3.4-5.8 0-1.3-.3-2.2-.3-.9-1-1.7l-1.6-1.3q-.6-.6-2-1.1l-2.5-1-2.9-.5q-1.8-.5-2.9-.6-1-.4-3.3-.7l-3.4-.6q-4.9-.7-8.2-1.5-3.4-1-7.5-2.7-4-1.9-6.6-4.2-2.5-2.4-4.1-6.4-1.7-4.1-1.7-9.5 0-11.9 9.6-18.5t24.2-6.6q16.3 0 25.3 6.8 9 6.5 10 18.3h-23q-1.2-9.2-12.5-9.2-4.9 0-8 1.9-2.8 1.8-2.8 5.3 0 1 .3 1.7.3.8.9 1.4l1.4 1q.7.5 2 1l2 .7 2.8.7 3 .6q1.2.1 3.2.6l3.2.4 8.5 1.7q3.4.8 7.8 2.8 4.6 1.8 7.2 4.4 2.6 2.5 4.4 6.9 2 4.3 2 10 0 12.6-9.9 19.3-9.8 6.8-25.7 6.8m43.7-2.5v-78.3h25V242zm0-89.1v-20.2h25v20.2zm60 91.1q-12.1 0-19.4-6.3-7.4-6.2-7.4-17.5 0-12 8-17.3 8-5.5 22-7.4 11.5-1.3 15.6-3 4.3-1.9 4.3-5.7 0-8.4-10.7-8.4-11.5 0-12.7 10.1h-23q.5-11.6 9.5-19.3 9.2-7.6 26-7.6t25.4 6.4q10 7.2 10 22.3v39.5q0 9.3 2.7 11.2v1h-24.2q-1.5-2.1-2.6-8.7h-.3q-7.5 10.7-23.2 10.7m8-15.9q7 0 11.2-3.8 4.5-4 4.5-10.3v-9.3q-3.7 1.9-12.9 4.1-7.5 1.7-10.5 4t-3 6.6q0 8.7 10.6 8.7" style="fill:#000" transform="matrix(.98792 0 0 1.02654 -3.4 1.2)"/></g><path d="M211.5 119v18.7c0 60.8-49.3 110-110.1 110H0V9h101.4c60.8 0 110 49.3 110 110.1"/><path d="M185.8 144.6c-6-8.4-18.1-7.4-18.1-7.4-48.2 0-65.4 50.2-65.4 50.2l-41.6-36.8.2-.3c.3-.3 24.6-35.4 95.3-35.4 7 0 13.9.8 20.6 2 3 .7 6 1.9 8.4 3.8 11.6 9.3.6 24 .6 24" style="fill:#fff"/><path d="M173.3 110.3c-5.6-.9-11.3-1.3-17.1-1.3-71.3 0-97.2 33.6-100 37.7l-43.5-38.5s42.5-24.9 106.1-24.9c37.2 0 50.1 14.7 54.5 27" style="fill:red"/></g></svg>